<svg width="35" height="35" viewBox="0 0 35 35" fill="none" xmlns="http://www.w3.org/2000/svg">
<path d="M32.3766 17.377C32.3766 16.154 32.2753 15.2615 32.0562 14.3359H17.8052V19.8562H26.1702C26.0016 21.228 25.0909 23.294 23.067 24.6822L23.0387 24.867L27.5446 28.2879L27.8567 28.3184C30.7237 25.7235 32.3766 21.9056 32.3766 17.377Z" fill="#4285F4"/>
<path d="M17.8041 31.9219C21.9023 31.9219 25.3427 30.5996 27.8557 28.3189L23.066 24.6826C21.7843 25.5586 20.064 26.1701 17.8041 26.1701C13.7903 26.1701 10.3836 23.5753 9.16919 19.9888L8.99118 20.0036L4.3059 23.5571L4.24463 23.724C6.74062 28.5832 11.8676 31.9219 17.8041 31.9219Z" fill="#34A853"/>
<path d="M9.17004 19.989C8.84961 19.0634 8.66417 18.0717 8.66417 17.047C8.66417 16.0222 8.84961 15.0306 9.15318 14.105L9.1447 13.9079L4.40069 10.2974L4.24547 10.3697C3.21675 12.3861 2.62646 14.6505 2.62646 17.047C2.62646 19.4435 3.21675 21.7078 4.24547 23.7242L9.17004 19.989Z" fill="#FBBC05"/>
<path d="M17.8042 7.9235C20.6544 7.9235 22.577 9.13002 23.6732 10.1383L27.957 6.03937C25.3261 3.64285 21.9024 2.17187 17.8042 2.17187C11.8676 2.17188 6.74064 5.51046 4.24463 10.3696L9.15236 14.1049C10.3836 10.5184 13.7903 7.9235 17.8042 7.9235Z" fill="#EB4335"/>
</svg>
